HIERARCHY
ROOT Hips
{
  OFFSET -213.699 104.721 0.752556
  CHANNELS 6 Xposition Yposition Zposition Zrotation Xrotation Yrotation
  JOINT RightUpLeg
  {
    OFFSET -8.9458 -8.66707 0.101652
    CHANNELS 3 Zrotation Xrotation Yrotation
    JOINT RightLeg
    {
      OFFSET 0 -44.4227 1.3727
      CHANNELS 3 Zrotation Xrotation Yrotation
      JOINT RightFoot
      {
        OFFSET 0.253549 -42.0924 -1.46059
        CHANNELS 3 Zrotation Xrotation Yrotation
        JOINT RightToes
        {
          OFFSET 0.04 -4.41509 8.4991
          CHANNELS 3 Zrotation Xrotation Yrotation
          End Site
          {
            OFFSET -0.08 -0.137448 9.77979
          }
        }
      }
    }
  }
  JOINT Spine
  {
    OFFSET 0 11.8905 0
    CHANNELS 3 Zrotation Xrotation Yrotation
    JOINT Spine1
    {
      OFFSET 0 25.6574 0.127663
      CHANNELS 3 Zrotation Xrotation Yrotation
      JOINT HEad
      {
        OFFSET 0 8.73416 0.011341
        CHANNELS 3 Zrotation Xrotation Yrotation
        End Site
        {
          OFFSET -0.29 12.7742 2.51395
        }
      }
      JOINT LeftShoulder1
      {
        OFFSET 8.99 -0.362252 -0.22
        CHANNELS 3 Zrotation Xrotation Yrotation
        JOINT LeftArm
        {
          OFFSET 10.2827 -0.00337999 0.322123
          CHANNELS 3 Zrotation Xrotation Yrotation
          JOINT LeftForeArm
          {
            OFFSET 26.2597 0.099144 -1.42434
            CHANNELS 3 Zrotation Xrotation Yrotation
            JOINT LeftHand
            {
              OFFSET 22.0902 0.085362 1.02216
              CHANNELS 3 Zrotation Xrotation Yrotation
              End Site
              {
                OFFSET 13.419 -0.6 1.50291
              }
            }
          }
        }
      }
      JOINT RightShoulder
      {
        OFFSET -8.99 -0.362252 -0.22
        CHANNELS 3 Zrotation Xrotation Yrotation
        JOINT RightArm
        {
          OFFSET -10.2827 -0.00338 0.322123
          CHANNELS 3 Zrotation Xrotation Yrotation
          JOINT RightForeArm
          {
            OFFSET -26.364 0.099144 -1.42434
            CHANNELS 3 Zrotation Xrotation Yrotation
            JOINT RightHand
            {
              OFFSET -22.0324 0.085362 1.02216
              CHANNELS 3 Zrotation Xrotation Yrotation
              End Site
              {
                OFFSET -13.3284 -0.6 1.50291
              }
            }
          }
        }
      }
    }
  }
  JOINT LeftUpLeg
  {
    OFFSET 8.9458 -8.66707 0.101652
    CHANNELS 3 Zrotation Xrotation Yrotation
    JOINT LeftLeg
    {
      OFFSET 0 -44.4227 1.3727
      CHANNELS 3 Zrotation Xrotation Yrotation
      JOINT LeftFoot
      {
        OFFSET -0.253549 -42.0924 -1.46059
        CHANNELS 3 Zrotation Xrotation Yrotation
        JOINT LeftToes
        {
          OFFSET -0.04 -4.41509 8.4991
          CHANNELS 3 Zrotation Xrotation Yrotation
          End Site
          {
            OFFSET 0.08 -0.047448 9.77979
          }
        }
      }
    }
  }
}
MOTION
Frames:	18
Frame Time:	0.0333333
210.155 102.052 -1.61875 -2.63625 -1.26701 46.1877 3.65893 -9.56945 1.28518 2.09578 10.0635 -27.7786 -5.23749 -5.00618 -0.0317054 0.0462048 0.000530889 0.662642 -8.98447 4.22442 -2.17194 5.45384 5.46018 -3.65632 9.96049 18.2843 -34.8981 -30.6096 -3.25515 12.3674 -82.8765 -38.6651 -51.3259 -139.33 84.1577 140.714 6.93514 9.16675 -8.49911 32.2439 -1.89802 -9.02284 53.7102 -23.1284 17.5461 8.32428 49.502 5.32281 0.141882 9.96979 3.258 -0.105927 -4.88247 3.73506 0.345661 10.9336 43.0068 3.16064 -5.43559 -0.0446135 -1.32447e-009 8.75315e-006 -1.48323e-008 
210.87 101.955 -1.46728 -2.43015 -1.22454 39.7598 3.22151 -9.40414 0.162687 3.06238 9.66333 -36.237 -8.73977 -4.50667 0.0932702 0.0462048 0.000530889 0.662642 -8.8541 3.68441 -2.09986 5.19963 5.74469 -3.50651 9.45131 18.0558 -35.4073 -30.5145 -3.24534 12.3634 -82.2206 -40.0592 -52.5851 -144.539 83.9107 146.694 6.94579 9.17426 -8.32995 31.8304 -1.81594 -8.86711 53.6988 -23.2964 17.3664 8.65358 49.7715 4.79521 -0.442675 9.92587 3.22783 -0.174276 -4.0909 4.50382 -0.360387 11.718 48.7614 2.39203 -6.25761 -0.00556749 -1.32447e-009 8.75315e-006 -1.48323e-008 
211.564 101.695 -1.10009 -2.0721 -1.34772 33.4623 3.00503 -9.31903 -0.334236 3.18191 10.3581 -41.2513 -8.95615 -3.18057 0.205366 0.0462048 0.000530889 0.662642 -8.76222 3.29336 -2.02392 5.02816 5.91681 -3.3826 8.99391 17.6946 -35.4413 -30.344 -3.24299 12.398 -81.5159 -41.9988 -53.3077 -150.282 83.4955 153.357 6.92847 9.18633 -8.13652 31.4321 -1.78526 -8.84203 53.6264 -23.6218 17.254 9.0113 50.4984 4.12067 -0.94183 9.88907 3.35124 0.112248 -3.51061 5.80547 -1.78611 13.5383 54.1832 1.43929 -7.6263 0.0285027 -1.32447e-009 8.75315e-006 -1.48323e-008 
212.099 101.285 -0.510532 -1.80085 -1.92505 27.3568 3.38576 -9.26756 -0.0415224 2.67284 12.3749 -40.3614 -6.67103 -1.9951 0.198063 0.0462048 0.000530889 0.662642 -8.58663 3.34272 -1.97551 4.97822 5.87796 -3.34473 8.61782 17.2044 -34.768 -30.2755 -3.30942 12.5961 -80.4205 -44.2635 -53.5468 -154.736 83.0453 158.638 6.94062 9.19845 -7.87679 31.3037 -1.75706 -8.78494 53.2978 -24.008 17.0872 9.05424 51.1847 3.87665 -0.98449 9.88579 3.35025 1.40722 -3.03934 9.40499 -3.75517 16.8401 56.1436 -1.87374 -9.40597 0.0050627 -1.32447e-009 8.75315e-006 -1.48323e-008 
212.425 100.8 0.209388 -1.80244 -2.93491 21.2422 4.45401 -9.1641 0.417463 1.87836 15.1632 -34.6078 -5.12066 -2.15946 0.111775 0.0462048 0.000530889 0.662642 -8.36039 3.84951 -1.8761 5.0517 5.65988 -3.30785 8.32419 16.7391 -33.7198 -30.4114 -3.43318 12.9002 -79.0072 -46.7758 -53.3376 -157.626 82.7833 162.279 7.10277 9.19488 -7.59437 31.4353 -1.73152 -8.69848 52.9545 -24.5827 17.1024 8.99262 52.0105 3.60275 -0.723605 9.90534 3.294 3.83594 -3.08246 22.1606 -3.04829 23.2994 47.5771 -6.03948 -10.6819 -0.1021 -1.32447e-009 8.75315e-006 -1.48323e-008 
212.624 100.303 0.900314 -2.02565 -4.03389 15.154 5.77416 -9.10696 0.436382 0.909522 18.0686 -27.6386 -5.67706 -3.3861 0.0674322 0.0462048 0.000530889 0.662642 -8.28953 4.60924 -1.77141 5.25235 5.37854 -3.29263 8.23634 16.5049 -33.0391 -30.5683 -3.52566 13.1119 -77.8601 -49.5407 -52.6405 -159.141 83.0728 164.691 7.24029 9.1927 -7.34868 31.5663 -1.77474 -8.79511 53.0663 -25.229 17.494 8.9484 53.0667 2.97984 -0.613442 9.91376 3.35715 7.19016 -4.02234 38.3845 2.35339 31.9889 33.6948 -5.76762 -9.59476 -0.0689051 -1.32447e-009 8.75315e-006 -1.48323e-008 
212.863 99.813 1.45218 -2.29044 -4.94687 9.35333 6.79055 -9.18223 0.498471 -0.0237193 20.8429 -22.1399 -6.63916 -4.64375 0.024895 0.0462048 0.000530889 0.662642 -8.33275 5.4658 -1.80347 5.48967 5.10935 -3.38822 8.53834 16.4754 -33.032 -30.6172 -3.57727 13.2393 -77.5671 -52.3002 -51.7498 -160.546 83.8033 167.27 7.05477 9.22433 -7.13645 31.5785 -1.87558 -9.0609 53.4632 -25.5545 17.8431 8.64928 53.3656 2.79474 -0.935114 9.88956 3.49525 10.2867 -5.9838 37.7929 1.83339 40.9981 34.9981 0.473175 -6.02956 -0.00676063 -1.32447e-009 8.75315e-006 -1.48323e-008 
213.297 99.4107 1.89706 -2.51283 -5.6435 3.67141 7.35072 -9.24127 1.67402 -0.660913 23.2155 -18.0756 -6.55454 -5.45644 -0.0297636 0.0462048 0.000530889 0.662642 -8.27497 6.26444 -1.91636 5.57183 4.90343 -3.49373 9.21579 16.466 -33.2919 -30.8032 -3.71175 13.553 -78.0972 -54.5104 -51.0754 -163.333 84.3186 171.304 6.85996 9.25982 -6.85896 31.5706 -1.92274 -9.18721 53.4739 -25.4821 17.7297 8.19031 52.2344 3.50574 -1.4322 9.85124 3.58752 11.7627 -7.82391 35.6518 1.80987 47.93 29.4272 6.95851 -3.46775 -0.232 -1.32447e-009 8.75315e-006 -1.48323e-008 
213.991 99.2347 2.35201 -2.74034 -6.09972 -2.46857 7.6482 -9.02174 4.45452 -0.98061 24.6126 -14.6244 -5.96748 -5.76494 -0.0599015 0.0462048 0.000530889 0.662642 -8.04935 6.6868 -1.90546 5.36406 4.88963 -3.40941 9.87325 16.4604 -33.3775 -31.4374 -4.02673 14.2177 -78.8188 -55.7737 -50.3874 -166.164 84.429 175.03 7.23603 9.24339 -6.43339 31.4786 -1.85324 -9.01602 53.0986 -25.1613 17.536 8.06736 50.5884 4.18904 -1.64631 9.83467 3.58459 11.1956 -8.86883 31.8347 1.51034 51.5185 17.7225 7.69411 -4.07492 -0.239046 -1.32447e-009 8.75315e-006 -1.48323e-008 
214.947 99.2743 2.8696 -3.13523 -6.17687 -9.19247 7.85702 -8.6243 7.90658 -1.17905 24.8662 -11.1804 -5.43683 -5.65124 -0.0624395 0.0462048 0.000530889 0.662642 -7.39954 6.60069 -1.8149 4.94433 5.1184 -3.16581 10.0623 16.5462 -33.1804 -32.3514 -4.42989 15.008 -79.2777 -56.1969 -49.0055 -166.774 84.751 175.935 7.75259 9.21133 -6.0648 31.09 -1.72726 -8.73478 53.1575 -24.9791 17.9135 8.29119 50.1125 3.94259 -1.66877 9.83303 3.57136 9.35318 -9.31012 26.9256 0.897349 51.4981 5.67598 3.9108 -6.50096 -0.0219107 -1.32447e-009 8.75315e-006 -1.48323e-008 
216.08 99.455 3.41881 -3.55715 -5.84115 -16.0929 7.76611 -8.28297 10.5501 -1.46078 24.2031 -6.82126 -4.40577 -5.27411 -0.0641929 0.0462048 0.000530889 0.662642 -6.49468 6.30687 -1.79492 4.37544 5.3714 -2.95329 9.81532 16.5598 -32.6029 -33.0127 -4.70561 15.5149 -79.5515 -56.1086 -46.6729 -164.858 85.3995 173.799 7.40323 9.23703 -6.24785 30.4552 -1.62228 -8.53809 53.865 -25.0164 18.7162 8.4894 50.8662 3.21791 -1.94686 9.80963 3.77956 6.686 -9.82524 20.4624 0.480292 49.0876 0.838081 0.583705 -8.86459 0.0472346 -1.32447e-009 8.75315e-006 -1.48323e-008 
217.266 99.7332 3.99523 -3.75212 -5.32623 -23.0429 7.25379 -8.05381 12.2656 -1.88581 22.9802 -1.26473 -2.27586 -4.85883 -0.0976256 0.0462048 0.000530889 0.662642 -5.8704 6.11246 -1.76345 3.76309 5.46372 -2.76796 9.57686 16.1457 -31.5838 -33.1964 -4.7684 15.6162 -79.5455 -55.4078 -43.6243 -161.675 85.3952 169.888 6.53112 9.28218 -7.12386 29.8718 -1.53573 -8.37815 54.4185 -24.9317 19.2839 8.36259 51.3762 3.25724 -2.26408 9.78092 4.14538 3.38237 -10.2198 12.436 0.607131 45.5161 4.72431 0.942385 -11.2095 0.0899582 -1.32447e-009 8.75315e-006 -1.48323e-008 
218.42 99.9821 4.61823 -3.79762 -4.81789 -30.2415 6.69232 -8.08014 14.0465 -2.42254 21.8549 4.43877 0.758788 -4.71337 -0.172013 0.0462048 0.000530889 0.662642 -5.61378 6.0222 -1.57887 3.28439 5.49098 -2.48228 9.58541 15.2072 -30.3886 -33.1733 -4.74747 15.5703 -78.8649 -53.5211 -40.3204 -158.913 84.2563 165.53 6.48944 9.2393 -8.08904 29.5131 -1.4515 -8.19027 54.3161 -24.5186 19.5368 8.01686 50.9254 4.32511 -1.94593 9.80598 4.23082 0.200094 -10.0275 3.8312 0.911238 40.9493 11.1974 3.98334 -13.0435 0.253015 -1.32447e-009 8.75315e-006 -1.48323e-008 
219.546 100.121 5.27283 -3.88625 -4.26992 -37.4686 6.30844 -8.42958 15.9911 -2.85861 21.0748 9.50904 4.27432 -4.98738 -0.252807 0.0462048 0.000530889 0.662642 -5.50303 6.11088 -1.33962 2.98651 5.42993 -2.18853 9.66095 14.047 -29.2022 -33.1649 -4.745 15.5668 -77.7582 -50.3258 -37.5412 -155.491 82.9611 159.554 7.19222 9.12999 -8.60596 29.3888 -1.40665 -8.08013 53.9377 -23.7801 19.9374 7.80045 50.1889 5.3847 -1.18513 9.86972 3.96402 -2.07053 -9.32751 -5.01325 1.00217 35.8109 13.2187 6.28018 -13.3574 0.381794 -1.32447e-009 8.75315e-006 -1.48323e-008 
220.69 100.062 5.89037 -4.1477 -3.51422 -44.1959 6.19099 -9.30127 17.3043 -2.95683 20.8901 14.2869 8.02136 -5.75613 -0.291222 0.0462048 0.000530889 0.662642 -5.30641 6.61211 -1.24881 2.96185 5.08197 -2.09573 9.71088 13.035 -27.6982 -33.0174 -4.68135 15.4507 -77.1012 -46.6585 -36.0028 -150.016 82.4713 151.323 7.38955 9.08003 -9.07939 29.4769 -1.41188 -8.08359 53.8802 -23.3698 20.7032 7.90962 50.4815 5.50642 -0.921035 9.89094 3.86216 -2.81273 -8.62247 -13.2437 0.78879 31.4841 9.87315 5.42614 -12.7137 0.307036 -1.32447e-009 8.75315e-006 -1.48323e-008 
221.826 99.9111 6.42347 -4.3444 -2.65181 -50.3512 6.21205 -10.6038 17.9478 -2.77607 20.9523 18.1884 11.1252 -6.26349 -0.303132 0.0462048 0.000530889 0.662642 -5.46992 7.30695 -1.24788 3.24999 4.63815 -2.19087 9.95948 12.2957 -25.729 -32.5426 -4.46279 15.0352 -77.2069 -43.3451 -35.7203 -141.092 82.8177 140.181 7.04563 9.08151 -9.85605 29.6771 -1.41239 -8.05989 54.2028 -23.4845 21.6194 8.2585 51.5935 4.87181 -1.2981 9.86027 4.09913 -2.17769 -8.16039 -17.2688 0.545068 28.7584 5.20249 2.60396 -12.4101 0.168444 -1.32447e-009 8.75315e-006 -1.48323e-008 
222.899 99.909 6.88245 -4.1203 -2.03538 -56.0971 6.13128 -11.9185 18.5905 -2.57646 20.5798 18.4476 11.8957 -5.3894 -0.39313 0.0462048 0.000530889 0.662642 -6.54194 7.65851 -1.22782 3.63906 4.54501 -2.3534 10.3547 11.7 -23.9864 -31.8354 -4.1414 14.408 -77.426 -40.4072 -36.181 -124.449 83.5571 121.733 7.0415 9.05825 -10.3034 29.8789 -1.39874 -7.99675 54.6789 -23.5575 22.5038 8.47941 51.9603 4.36093 -1.39681 9.85207 4.14037 -1.31777 -7.67297 -15.0895 0.550752 26.7832 2.95666 0.903918 -12.5284 0.100035 -1.32447e-009 8.75315e-006 -1.48323e-008 
223.97 99.9964 7.34206 -3.56016 -1.7025 -61.3064 6.05717 -13.2044 19.1243 -2.63557 20.1058 13.2596 9.17123 -3.65816 -0.461349 0.0462048 0.000530889 0.662642 -7.89552 7.75122 -1.28653 3.88007 4.67497 -2.57228 10.3101 11.0053 -23.0596 -31.1314 -3.82561 13.7698 -77.1959 -37.7919 -37.0442 -98.2789 83.6309 93.9868 7.41906 9.01819 -10.1036 30.1001 -1.42707 -8.04775 55.2338 -23.3956 23.2632 8.29597 50.9462 4.48445 -0.674998 9.90962 3.70162 -1.25475 -7.3473 -9.62152 1.11514 25.0406 3.25747 1.3365 -12.4238 0.115793 -1.32447e-009 8.75315e-006 -1.48323e-008 
